<svg width="59" height="60" viewBox="0 0 59 60" fill="none" xmlns="http://www.w3.org/2000/svg">
    <path d="M7.17089 60C4.08342 54.9921 1.99295 49.7623 0.899474 44.3106C-0.194004 38.859 -0.290487 33.5024 0.610024 28.2409C1.51053 22.9794 3.37588 17.9398 6.20606 13.122C9.10056 8.24089 12.9599 3.86688 17.7841 0L25.2133 4.46909C26.4997 5.29318 27.0786 6.30744 26.95 7.51189C26.8213 8.71633 26.4032 9.6672 25.6957 10.3645C24.3449 11.9493 23.0585 14.0412 21.8364 16.6402C20.6142 19.2393 19.7459 22.1553 19.2313 25.3883C18.7811 28.6212 18.8454 32.0761 19.4243 35.7528C20.0032 39.4295 21.4504 43.1062 23.766 46.7829C24.9238 48.6212 25.2454 50.2377 24.7309 51.6323C24.2163 52.9635 23.155 53.9144 21.5469 54.4849L7.17089 60ZM39.2034 60C36.1159 54.9921 34.0254 49.7623 32.9319 44.3106C31.8385 38.859 31.742 33.5024 32.6425 28.2409C33.543 22.9794 35.4084 17.9398 38.2385 13.122C41.133 8.24089 44.9924 3.86688 49.8165 0L57.2458 4.46909C58.5322 5.29318 59.1111 6.30744 58.9825 7.51189C58.8538 8.71633 58.4357 9.6672 57.7282 10.3645C56.3774 11.9493 55.091 14.0412 53.8688 16.6402C52.6467 19.2393 51.7784 22.1553 51.2638 25.3883C50.8135 28.6212 50.8779 32.0761 51.4568 35.7528C52.0357 39.4295 53.4829 43.1062 55.7985 46.7829C56.9563 48.6212 57.2779 50.2377 56.7633 51.6323C56.2488 52.9635 55.1874 53.9144 53.5794 54.4849L39.2034 60Z" fill="#EE9972"/>
</svg>