<svg width="136" height="24" viewBox="0 0 136 24" fill="none" xmlns="http://www.w3.org/2000/svg">
    <path d="M9.15316 5.40838C10.4198 3.13613 11.0531 2 12 2C12.9469 2 13.5802 3.13612 14.8468 5.40837L15.1745 5.99623C15.5345 6.64193 15.7144 6.96479 15.9951 7.17781C16.2757 7.39083 16.6251 7.4699 17.3241 7.62805L17.9605 7.77203C20.4201 8.32856 21.65 8.60682 21.9426 9.54773C22.2352 10.4886 21.3968 11.4691 19.7199 13.4299L19.2861 13.9372C18.8096 14.4944 18.5713 14.773 18.4641 15.1177C18.357 15.4624 18.393 15.8341 18.465 16.5776L18.5306 17.2544C18.7841 19.8706 18.9109 21.1787 18.1449 21.7602C17.3788 22.3417 16.2273 21.8115 13.9243 20.7512L13.3285 20.4768C12.6741 20.1755 12.3469 20.0248 12 20.0248C11.6531 20.0248 11.3259 20.1755 10.6715 20.4768L10.0757 20.7512C7.77268 21.8115 6.62118 22.3417 5.85515 21.7602C5.08912 21.1787 5.21588 19.8706 5.4694 17.2544L5.53498 16.5776C5.60703 15.8341 5.64305 15.4624 5.53586 15.1177C5.42868 14.773 5.19043 14.4944 4.71392 13.9372L4.2801 13.4299C2.60325 11.4691 1.76482 10.4886 2.05742 9.54773C2.35002 8.60682 3.57986 8.32856 6.03954 7.77203L6.67589 7.62805C7.37485 7.4699 7.72433 7.39083 8.00494 7.17781C8.28555 6.96479 8.46553 6.64194 8.82547 5.99623L9.15316 5.40838Z" fill="#F4CE14"/>
    <path d="M37.1532 5.40838C38.4198 3.13613 39.0531 2 40 2C40.9469 2 41.5802 3.13612 42.8468 5.40837L43.1745 5.99623C43.5345 6.64193 43.7144 6.96479 43.9951 7.17781C44.2757 7.39083 44.6251 7.4699 45.3241 7.62805L45.9605 7.77203C48.4201 8.32856 49.65 8.60682 49.9426 9.54773C50.2352 10.4886 49.3968 11.4691 47.7199 13.4299L47.2861 13.9372C46.8096 14.4944 46.5713 14.773 46.4641 15.1177C46.357 15.4624 46.393 15.8341 46.465 16.5776L46.5306 17.2544C46.7841 19.8706 46.9109 21.1787 46.1449 21.7602C45.3788 22.3417 44.2273 21.8115 41.9243 20.7512L41.3285 20.4768C40.6741 20.1755 40.3469 20.0248 40 20.0248C39.6531 20.0248 39.3259 20.1755 38.6715 20.4768L38.0757 20.7512C35.7727 21.8115 34.6212 22.3417 33.8551 21.7602C33.0891 21.1787 33.2159 19.8706 33.4694 17.2544L33.535 16.5776C33.607 15.8341 33.643 15.4624 33.5359 15.1177C33.4287 14.773 33.1904 14.4944 32.7139 13.9372L32.2801 13.4299C30.6032 11.4691 29.7648 10.4886 30.0574 9.54773C30.35 8.60682 31.5799 8.32856 34.0395 7.77203L34.6759 7.62805C35.3749 7.4699 35.7243 7.39083 36.0049 7.17781C36.2856 6.96479 36.4655 6.64194 36.8255 5.99623L37.1532 5.40838Z" fill="#F4CE14"/>
    <path d="M65.1532 5.40838C66.4198 3.13613 67.0531 2 68 2C68.9469 2 69.5802 3.13612 70.8468 5.40837L71.1745 5.99623C71.5345 6.64193 71.7144 6.96479 71.9951 7.17781C72.2757 7.39083 72.6251 7.4699 73.3241 7.62805L73.9605 7.77203C76.4201 8.32856 77.65 8.60682 77.9426 9.54773C78.2352 10.4886 77.3968 11.4691 75.7199 13.4299L75.2861 13.9372C74.8096 14.4944 74.5713 14.773 74.4641 15.1177C74.357 15.4624 74.393 15.8341 74.465 16.5776L74.5306 17.2544C74.7841 19.8706 74.9109 21.1787 74.1449 21.7602C73.3788 22.3417 72.2273 21.8115 69.9243 20.7512L69.3285 20.4768C68.6741 20.1755 68.3469 20.0248 68 20.0248C67.6531 20.0248 67.3259 20.1755 66.6715 20.4768L66.0757 20.7512C63.7727 21.8115 62.6212 22.3417 61.8551 21.7602C61.0891 21.1787 61.2159 19.8706 61.4694 17.2544L61.535 16.5776C61.607 15.8341 61.643 15.4624 61.5359 15.1177C61.4287 14.773 61.1904 14.4944 60.7139 13.9372L60.2801 13.4299C58.6032 11.4691 57.7648 10.4886 58.0574 9.54773C58.35 8.60682 59.5799 8.32856 62.0395 7.77203L62.6759 7.62805C63.3749 7.4699 63.7243 7.39083 64.0049 7.17781C64.2856 6.96479 64.4655 6.64194 64.8255 5.99623L65.1532 5.40838Z" fill="#F4CE14"/>
    <path d="M93.1532 5.40838C94.4198 3.13613 95.0531 2 96 2C96.9469 2 97.5802 3.13612 98.8468 5.40837L99.1745 5.99623C99.5345 6.64193 99.7144 6.96479 99.9951 7.17781C100.276 7.39083 100.625 7.4699 101.324 7.62805L101.96 7.77203C104.42 8.32856 105.65 8.60682 105.943 9.54773C106.235 10.4886 105.397 11.4691 103.72 13.4299L103.286 13.9372C102.81 14.4944 102.571 14.773 102.464 15.1177C102.357 15.4624 102.393 15.8341 102.465 16.5776L102.531 17.2544C102.784 19.8706 102.911 21.1787 102.145 21.7602C101.379 22.3417 100.227 21.8115 97.9243 20.7512L97.3285 20.4768C96.6741 20.1755 96.3469 20.0248 96 20.0248C95.6531 20.0248 95.3259 20.1755 94.6715 20.4768L94.0757 20.7512C91.7727 21.8115 90.6212 22.3417 89.8551 21.7602C89.0891 21.1787 89.2159 19.8706 89.4694 17.2544L89.535 16.5776C89.607 15.8341 89.643 15.4624 89.5359 15.1177C89.4287 14.773 89.1904 14.4944 88.7139 13.9372L88.2801 13.4299C86.6032 11.4691 85.7648 10.4886 86.0574 9.54773C86.35 8.60682 87.5799 8.32856 90.0395 7.77203L90.6759 7.62805C91.3749 7.4699 91.7243 7.39083 92.0049 7.17781C92.2856 6.96479 92.4655 6.64194 92.8255 5.99623L93.1532 5.40838Z" fill="#F4CE14"/>
    <path d="M121.153 5.40838C122.42 3.13613 123.053 2 124 2C124.947 2 125.58 3.13612 126.847 5.40837L127.175 5.99623C127.534 6.64193 127.714 6.96479 127.995 7.17781C128.276 7.39083 128.625 7.4699 129.324 7.62805L129.96 7.77203C132.42 8.32856 133.65 8.60682 133.943 9.54773C134.235 10.4886 133.397 11.4691 131.72 13.4299L131.286 13.9372C130.81 14.4944 130.571 14.773 130.464 15.1177C130.357 15.4624 130.393 15.8341 130.465 16.5776L130.531 17.2544C130.784 19.8706 130.911 21.1787 130.145 21.7602C129.379 22.3417 128.227 21.8115 125.924 20.7512L125.329 20.4768C124.674 20.1755 124.347 20.0248 124 20.0248C123.653 20.0248 123.326 20.1755 122.671 20.4768L122.076 20.7512C119.773 21.8115 118.621 22.3417 117.855 21.7602C117.089 21.1787 117.216 19.8706 117.469 17.2544L117.535 16.5776C117.607 15.8341 117.643 15.4624 117.536 15.1177C117.429 14.773 117.19 14.4944 116.714 13.9372L116.28 13.4299C114.603 11.4691 113.765 10.4886 114.057 9.54773C114.35 8.60682 115.58 8.32856 118.04 7.77203L118.676 7.62805C119.375 7.4699 119.724 7.39083 120.005 7.17781C120.286 6.96479 120.466 6.64194 120.825 5.99623L121.153 5.40838Z" fill="#F4CE14"/>
</svg>